<?xml version="1.0" standalone="no"?>
<!DOCTYPE svg PUBLIC "-//W3C//DTD SVG 20010904//EN"
 "http://www.w3.org/TR/2001/REC-SVG-20010904/DTD/svg10.dtd">
<svg version="1.0" xmlns="http://www.w3.org/2000/svg"
 width="1024.000000pt" height="788.000000pt" viewBox="0 0 1024.000000 788.000000"
 preserveAspectRatio="xMidYMid meet">

<g transform="translate(0.000000,788.000000) scale(0.100000,-0.100000)"
fill="#000000" stroke="none">
<path d="M4873 7150 c-117 -25 -241 -118 -293 -221 -124 -242 -5 -535 253
-618 l37 -13 0 -77 0 -78 -52 -7 c-29 -3 -76 -6 -105 -6 -76 0 -270 -26 -413
-56 -595 -123 -1029 -453 -1283 -975 l-62 -126 -57 -6 c-117 -11 -191 -72
-259 -212 -160 -331 -118 -901 83 -1130 48 -54 124 -95 180 -95 33 0 37 -3 48
-37 47 -148 165 -330 286 -443 127 -119 337 -241 517 -301 l68 -22 -65 -27
c-90 -38 -247 -144 -334 -225 -249 -231 -451 -568 -539 -897 -23 -86 -28 -123
-28 -228 0 -117 2 -129 29 -188 87 -189 294 -223 502 -83 74 50 181 158 224
225 36 57 50 68 50 40 0 -33 65 -208 97 -262 l34 -56 -22 -69 c-19 -59 -21
-82 -16 -165 27 -409 260 -643 616 -619 107 7 179 30 255 82 67 45 119 114
140 184 10 35 18 46 32 44 170 -18 276 -24 359 -18 l100 7 19 -51 c51 -142
215 -231 426 -231 154 0 265 45 356 143 91 98 153 252 176 432 10 81 10 104
-6 174 -17 80 -17 82 3 110 29 40 78 152 97 219 8 32 17 63 20 71 3 9 17 -1
41 -30 234 -281 503 -360 671 -196 136 133 117 417 -51 771 -102 214 -220 381
-386 546 -106 106 -281 234 -355 261 -44 16 -45 25 -4 33 17 3 82 26 143 51
282 113 470 258 612 474 47 71 123 218 146 284 4 10 17 17 34 17 49 0 126 44
176 100 194 216 232 737 77 1067 -59 127 -140 196 -247 211 l-45 7 -28 77
c-109 297 -339 596 -589 760 -348 230 -740 337 -1339 364 l-153 7 3 75 3 74
55 20 c189 70 305 254 287 452 -16 169 -121 305 -281 365 -63 23 -183 34 -243
21z m234 -82 c222 -82 303 -359 164 -561 -108 -158 -347 -202 -513 -96 -131
84 -196 260 -154 417 56 210 288 320 503 240z m-125 -855 c4 -74 0 -87 -25
-77 -29 11 -21 144 8 144 9 0 14 -21 17 -67z m418 -168 c609 -54 1003 -208
1305 -510 323 -321 485 -769 485 -1337 0 -380 -72 -658 -238 -913 -60 -92
-207 -238 -306 -305 -231 -154 -568 -256 -996 -300 -295 -31 -825 -30 -1142 0
-347 34 -687 115 -905 215 -181 83 -369 241 -470 393 -53 79 -123 222 -123
251 0 7 11 22 24 32 34 27 81 104 110 180 89 237 101 717 25 967 -28 90 -53
135 -101 188 l-41 45 61 122 c144 288 324 497 573 663 275 183 598 279 1074
317 120 10 519 5 665 -8z m-2420 -1167 c103 -53 156 -218 167 -528 6 -179 -7
-328 -42 -466 -22 -88 -67 -204 -79 -204 -3 0 6 24 20 54 39 86 72 253 85 433
11 156 10 165 -7 178 -22 17 -43 18 -64 5 -11 -7 -6 -8 16 -4 38 7 58 -13 48
-50 -7 -28 -19 -34 -28 -13 -3 6 -3 0 -1 -15 2 -16 -1 -28 -6 -28 -5 0 -9 5
-9 11 0 5 -5 7 -11 3 -8 -5 -9 -2 -1 12 8 14 7 23 -5 36 -12 14 -13 18 -3 18
9 0 8 5 -4 13 -14 10 -18 26 -18 62 1 27 5 51 9 54 14 10 14 41 1 41 -8 0 -6
5 5 11 9 6 15 14 12 19 -3 4 2 10 10 14 8 3 15 0 16 -7 0 -7 4 -3 9 8 7 16 9
13 9 -17 1 -21 -4 -38 -10 -38 -5 0 -8 4 -4 9 3 5 0 13 -6 16 -20 13 -19 -2 3
-30 21 -27 21 -27 0 -16 -30 16 -34 14 -22 -9 8 -14 17 -19 30 -15 15 5 18 1
16 -17 -2 -13 1 -33 6 -43 19 -45 -4 199 -28 287 -43 159 -92 218 -181 218
-77 0 -141 -47 -192 -140 -32 -57 -43 -63 -15 -7 41 79 77 119 128 143 64 30
90 30 146 2z m4303 -53 c40 -26 91 -101 122 -180 87 -220 93 -559 13 -772 -29
-77 -31 -61 -3 22 13 39 29 110 36 160 15 113 7 334 -16 439 -18 83 -78 238
-99 255 -13 11 -45 -3 -33 -16 5 -4 12 -1 16 6 7 11 11 10 19 -5 8 -14 6 -22
-6 -32 -16 -13 -16 -13 0 -8 20 6 34 -9 17 -19 -6 -4 -16 -2 -22 4 -6 6 -19
11 -29 11 -16 0 -18 -9 -18 -75 0 -72 9 -92 28 -59 8 14 10 14 21 0 8 -9 10
-16 5 -16 -12 0 18 -20 31 -20 5 0 4 5 -3 12 -7 7 -12 17 -12 23 0 5 4 4 9 -4
5 -8 11 -9 15 -3 3 6 -3 13 -14 17 -12 4 -20 15 -20 28 1 20 2 21 14 5 7 -10
19 -18 27 -18 11 0 11 2 -1 11 -13 9 -13 10 0 6 9 -2 14 -14 12 -28 -2 -19 0
-21 8 -9 7 11 10 11 10 2 0 -7 -6 -15 -13 -18 -18 -6 -17 -32 0 -38 8 -3 11
-2 8 3 -3 5 -1 12 4 15 5 3 11 -8 13 -24 3 -21 1 -27 -6 -20 -6 6 -16 4 -30
-8 -20 -16 -20 -16 -6 2 8 11 10 17 3 13 -6 -4 -13 -2 -16 5 -2 7 -3 6 -2 -3
1 -9 -2 -24 -7 -33 -11 -20 11 -22 31 -3 11 10 13 10 7 0 -4 -7 -3 -13 3 -13
6 0 8 -8 5 -17 -5 -16 -3 -15 10 1 21 26 30 16 10 -12 -8 -12 -20 -20 -25 -17
-5 4 -12 0 -15 -9 -3 -8 -13 -12 -22 -9 -13 4 -14 3 -3 -5 8 -6 10 -15 6 -22
-5 -9 -4 -11 3 -6 7 4 12 1 12 -9 0 -9 -4 -13 -10 -10 -5 3 -10 -3 -10 -15 0
-14 4 -19 13 -14 9 5 9 4 0 -6 -7 -8 -9 -18 -5 -24 5 -6 1 -26 -8 -45 l-17
-35 -13 23 c-6 13 -8 21 -3 18 5 -3 17 3 26 13 15 18 15 20 -3 30 -24 13 -30
13 -30 -1 0 -5 5 -7 12 -3 7 4 8 3 4 -4 -10 -17 -26 -15 -26 4 0 9 -5 12 -12
8 -9 -5 -9 -2 1 9 9 11 10 17 2 17 -6 0 -11 14 -11 30 0 17 5 30 13 30 8 0 8
3 -2 9 -8 6 -15 28 -16 55 -1 35 1 43 11 35 9 -8 11 -5 7 11 -4 15 -2 19 10
15 21 -9 29 21 10 37 -14 11 -15 10 -9 -8 4 -15 2 -21 -9 -21 -8 0 -15 5 -15
11 0 6 -4 4 -9 -4 -6 -8 -8 -104 -5 -225 3 -115 2 -237 -3 -270 -7 -45 -9 -1
-9 170 -1 239 -14 386 -54 569 -11 50 -20 95 -20 102 0 16 57 3 93 -21z
m-4285 0 c-3 -3 -9 2 -12 12 -6 14 -5 15 5 6 7 -7 10 -15 7 -18z m-160 -45
c44 -44 73 -108 92 -208 7 -34 15 -60 19 -58 3 2 6 -15 7 -37 0 -23 2 -98 4
-167 2 -69 0 -165 -4 -215 l-8 -90 30 -17 c36 -21 46 -23 36 -5 -4 6 -4 9 1 5
4 -4 14 -3 22 4 10 8 16 8 24 0 5 -7 6 -10 2 -7 -3 3 -17 -2 -31 -11 -22 -15
-26 -14 -64 11 -29 19 -38 31 -33 43 14 34 18 327 6 417 -27 199 -68 307 -132
343 -16 10 -29 20 -29 25 0 16 19 5 58 -33z m230 -60 c6 -25 6 -40 0 -40 -5 0
-2 -7 6 -16 9 -8 16 -23 15 -32 0 -11 -2 -12 -6 -4 -2 6 -9 12 -14 12 -6 0 -6
-8 1 -19 5 -11 7 -27 3 -37 -5 -13 -3 -16 10 -11 9 3 17 2 17 -4 0 -6 -12 -9
-27 -7 -16 2 -27 8 -25 16 1 6 -4 12 -12 12 -8 0 -17 4 -21 9 -3 6 6 6 25 1
18 -5 30 -5 30 1 0 5 -6 9 -14 9 -8 0 -13 10 -13 25 0 15 4 22 11 18 6 -3 6
-1 -1 7 -10 11 -10 17 0 29 9 12 9 13 0 7 -10 -5 -13 3 -13 28 0 48 15 46 28
-4z m-64 -36 c3 -8 2 -12 -4 -9 -6 3 -10 10 -10 16 0 14 7 11 14 -7z m4332
-34 c8 0 14 5 14 10 0 19 17 10 29 -16 14 -32 7 -44 -10 -16 -10 16 -17 18
-31 11 -10 -5 -18 -8 -18 -5 0 2 -2 10 -3 18 -2 7 -2 10 0 6 3 -5 11 -8 19 -8z
m-4679 -72 c-3 -8 -6 -5 -6 6 -1 11 2 17 5 13 3 -3 4 -12 1 -19z m4670 16 c-3
-3 -12 -4 -19 -1 -8 3 -5 6 6 6 11 1 17 -2 13 -5z m-4687 -111 c-15 -76 -19
-264 -8 -393 5 -69 5 -77 -3 -40 -16 70 -16 343 0 433 8 42 16 75 19 73 2 -3
-1 -36 -8 -73z m27 -85 c-2 -13 -4 -3 -4 22 0 25 2 35 4 23 2 -13 2 -33 0 -45z
m4782 -154 c1 -88 -2 -114 -14 -124 -13 -11 -15 -9 -13 13 1 14 6 23 10 21 4
-3 8 0 8 5 0 6 -6 11 -12 11 -9 0 -8 4 2 10 13 9 7 14 -12 11 -5 0 -8 6 -8 15
0 10 6 14 14 11 10 -4 13 -1 9 9 -3 7 -9 14 -15 14 -5 0 -6 5 -2 12 5 8 2 9
-12 4 -16 -6 -16 -4 3 16 14 15 19 28 14 37 -7 11 -9 11 -13 0 -3 -8 -8 -11
-12 -8 -4 4 0 13 7 21 13 13 12 16 -6 28 -20 12 -20 13 -2 26 10 7 22 11 26 8
5 -3 9 1 10 8 1 7 5 2 9 -12 4 -14 8 -75 9 -136z m-4582 89 c-3 -10 -5 -2 -5
17 0 19 2 27 5 18 2 -10 2 -26 0 -35z m-210 -115 c-2 -29 -3 -8 -3 47 0 55 1
79 3 53 2 -26 2 -71 0 -100z m396 68 c4 -10 1 -13 -8 -9 -8 3 -12 9 -9 14 7
12 11 11 17 -5z m-55 -41 c-3 -3 -9 2 -12 12 -6 14 -5 15 5 6 7 -7 10 -15 7
-18z m114 -27 c-6 -6 -12 -6 -16 1 -4 6 -2 11 3 11 6 0 12 8 12 18 1 15 2 15
6 -2 3 -10 0 -23 -5 -28z m4191 27 c4 -8 2 -17 -3 -20 -6 -4 -10 3 -10 14 0
25 6 27 13 6z m-4239 -32 c4 -10 4 -14 0 -10 -4 4 -14 1 -22 -6 -13 -11 -14
-9 -1 11 17 26 15 26 23 5z m26 -23 c0 -5 -5 -10 -11 -10 -5 0 -7 5 -4 10 3 6
8 10 11 10 2 0 4 -4 4 -10z m4302 -24 c7 4 8 2 4 -5 -9 -13 -26 -5 -25 12 0 9
2 8 6 -1 2 -6 10 -9 15 -6z m-4725 -68 c-2 -13 -4 -3 -4 22 0 25 2 35 4 23 2
-13 2 -33 0 -45z m400 47 c0 -8 -4 -12 -9 -9 -5 3 -6 10 -3 15 9 13 12 11 12
-6z m34 -32 c-11 -5 -11 -7 0 -14 12 -8 11 -11 -1 -19 -10 -7 -11 -13 -4 -17
6 -5 4 -14 -7 -25 -17 -16 -18 -16 -24 3 -4 10 -10 17 -15 14 -16 -10 -19 12
-5 31 9 12 15 14 16 7 1 -7 3 -17 4 -23 1 -5 3 -15 4 -22 2 -17 15 0 16 22 1
11 -3 20 -8 20 -5 0 -4 7 3 15 7 8 18 15 24 14 6 0 5 -3 -3 -6z m-234 -40 c-3
-10 -5 -4 -5 12 0 17 2 24 5 18 2 -7 2 -21 0 -30z m4523 -7 c0 -6 -7 -3 -14 6
-7 10 -17 14 -21 10 -5 -4 -5 -1 -1 6 6 10 11 10 22 1 8 -6 14 -17 14 -23z
m40 30 c0 -3 -4 -8 -10 -11 -5 -3 -10 -1 -10 4 0 6 5 11 10 11 6 0 10 -2 10
-4z m-4439 -33 c13 -16 12 -17 -3 -4 -17 13 -22 21 -14 21 2 0 10 -8 17 -17z
m4439 -11 c-8 -3 -43 -20 -78 -38 -36 -19 -59 -27 -52 -19 17 20 132 76 139
68 3 -3 -1 -8 -9 -11z m-4753 -24 c-3 -7 -5 -2 -5 12 0 14 2 19 5 13 2 -7 2
-19 0 -25z m429 -14 c-4 -9 -9 -15 -11 -12 -3 3 -3 13 1 22 4 9 9 15 11 12 3
-3 3 -13 -1 -22z m-419 -26 c-3 -8 -6 -5 -6 6 -1 11 2 17 5 13 3 -3 4 -12 1
-19z m-40 -20 c-3 -7 -5 -2 -5 12 0 14 2 19 5 13 2 -7 2 -19 0 -25z m50 -20
c-3 -8 -6 -5 -6 6 -1 11 2 17 5 13 3 -3 4 -12 1 -19z m390 9 c7 3 9 -3 6 -16
-6 -23 -23 -27 -41 -9 -19 19 -15 40 6 30 9 -5 22 -7 29 -5z m-430 -29 c-3 -8
-6 -5 -6 6 -1 11 2 17 5 13 3 -3 4 -12 1 -19z m4600 -40 c-2 -13 -4 -5 -4 17
-1 22 1 32 4 23 2 -10 2 -28 0 -40z m-10 -70 c-3 -7 -5 -2 -5 12 0 14 2 19 5
13 2 -7 2 -19 0 -25z m123 -46 c-11 -20 -37 -55 -56 -77 -34 -39 -34 -39 4 15
22 30 45 65 51 78 6 12 14 22 17 22 3 0 -4 -17 -16 -38z m-133 -4 c-3 -7 -5
-2 -5 12 0 14 2 19 5 13 2 -7 2 -19 0 -25z m-10 -50 c-3 -7 -5 -2 -5 12 0 14
2 19 5 13 2 -7 2 -19 0 -25z m-10 -40 c-3 -8 -6 -5 -6 6 -1 11 2 17 5 13 3 -3
4 -12 1 -19z m-4426 -15 c13 -16 12 -17 -3 -4 -17 13 -22 21 -14 21 2 0 10 -8
17 -17z m229 4 c0 -2 -10 -12 -22 -23 l-23 -19 19 23 c18 21 26 27 26 19z
m4205 -29 c6 -4 2 -8 -7 -8 -10 0 -18 7 -18 17 0 9 3 12 8 7 4 -5 12 -12 17
-16z m-3120 -969 c103 -19 127 -28 170 -59 87 -62 147 -97 255 -149 104 -49
260 -101 306 -101 34 0 29 -10 -26 -53 -102 -77 -202 -239 -236 -382 -22 -95
-15 -286 15 -368 70 -196 218 -352 401 -420 364 -136 753 31 893 383 110 278
16 623 -219 800 -33 24 -63 47 -67 51 -5 4 17 20 48 35 64 32 176 131 219 192
25 37 33 41 94 52 l67 12 41 -46 c77 -88 160 -275 205 -465 81 -340 58 -725
-60 -976 -157 -337 -455 -541 -895 -617 -102 -17 -147 -19 -291 -15 -248 8
-382 41 -610 152 -150 73 -503 302 -554 360 -59 68 -120 228 -136 358 -6 50
-4 63 35 148 170 379 282 789 260 960 -8 72 -38 139 -72 164 l-23 17 30 -5
c17 -3 84 -16 150 -28z m-210 -39 c3 -6 -1 -7 -9 -4 -18 7 -21 14 -7 14 6 0
13 -4 16 -10z m524 -16 c10 -9 -65 -3 -78 5 -10 6 1 8 30 4 24 -3 46 -7 48 -9z
m1406 6 c-3 -5 -21 -9 -38 -9 l-32 2 35 7 c19 4 36 8 38 9 2 0 0 -3 -3 -9z
m-1327 -17 c-10 -2 -28 -2 -40 0 -13 2 -5 4 17 4 22 1 32 -1 23 -4z m1230 0
c-10 -2 -28 -2 -40 0 -13 2 -5 4 17 4 22 1 32 -1 23 -4z m-1130 -10 c-16 -2
-40 -2 -55 0 -16 2 -3 4 27 4 30 0 43 -2 28 -4z m1010 0 c-16 -2 -40 -2 -55 0
-16 2 -3 4 27 4 30 0 43 -2 28 -4z m-830 -10 c-21 -2 -57 -2 -80 0 -24 2 -7 4
37 4 44 0 63 -2 43 -4z m690 0 c-15 -2 -42 -2 -60 0 -18 2 -6 4 27 4 33 0 48
-2 33 -4z m-255 -10 c-62 -2 -164 -2 -225 0 -62 1 -12 3 112 3 124 0 174 -2
113 -3z m1239 -86 c42 -34 106 -94 143 -134 l66 -72 -21 -48 c-46 -104 -137
-195 -228 -227 l-39 -14 -17 97 c-20 104 -78 291 -120 384 -33 73 -25 74 11 2
16 -30 32 -54 38 -54 5 0 11 -5 13 -13 2 -9 0 -8 -7 2 -17 23 -13 0 9 -60 24
-62 80 -288 80 -319 0 -18 3 -19 33 -9 70 24 93 59 49 72 -10 2 -6 4 8 3 14
-2 24 -8 22 -15 -5 -24 17 -11 57 36 23 26 39 53 36 59 -2 7 1 12 7 10 6 -1
13 4 15 11 3 6 0 12 -6 12 -6 0 -7 8 -4 17 6 15 7 15 13 -1 5 -14 9 -11 22 16
l16 34 -44 48 c-24 26 -49 44 -55 40 -12 -7 -59 33 -59 50 0 6 12 -2 26 -18
14 -15 28 -25 32 -21 12 12 -66 75 -85 69 -14 -4 -15 -3 -5 4 11 7 -1 21 -49
58 -88 69 -98 78 -64 59 17 -9 65 -44 107 -78z m-1916 25 c-5 -4 -66 26 -66
33 0 3 16 -3 35 -12 19 -9 33 -18 31 -21z m1214 35 c0 -2 -10 -12 -22 -23
l-23 -19 19 23 c18 21 26 27 26 19z m-2175 -48 c-27 -23 -97 -89 -153 -147
l-104 -106 59 -16 c32 -9 90 -31 128 -50 39 -19 74 -36 80 -39 5 -2 2 4 -8 13
-14 14 -15 21 -6 32 18 22 25 16 24 -22 -2 -33 23 -63 38 -47 4 3 14 0 24 -8
9 -8 14 -9 10 -2 -4 6 -2 15 5 19 7 4 10 4 6 -1 -4 -4 -3 -15 4 -22 9 -11 9
-17 -3 -24 -13 -8 -6 -13 14 -10 5 1 6 -2 3 -7 -3 -5 5 -19 18 -31 16 -15 26
-19 31 -12 7 13 25 5 25 -11 0 -5 -7 -8 -15 -4 -22 8 -19 1 19 -49 l35 -45 21
58 c12 31 42 131 66 222 24 91 42 145 39 120 -7 -60 -79 -323 -106 -388 l-22
-52 -19 39 c-63 128 -266 274 -432 312 l-55 12 18 26 c44 60 141 159 216 218
89 70 118 86 40 22z m2702 25 c-3 -3 -12 -4 -19 -1 -8 3 -5 6 6 6 11 1 17 -2
13 -5z m-595 -37 c-6 -7 -30 -23 -54 -36 -52 -29 -46 -20 13 19 50 33 55 35
41 17z m-1002 -33 c36 -13 52 -22 35 -19 -28 6 -116 43 -105 44 3 0 34 -11 70
-25z m593 19 c-18 -2 -48 -2 -65 0 -18 2 -4 4 32 4 36 0 50 -2 33 -4z m-110
-10 c-7 -2 -21 -2 -30 0 -10 3 -4 5 12 5 17 0 24 -2 18 -5z m205 0 c-10 -2
-26 -2 -35 0 -10 3 -2 5 17 5 19 0 27 -2 18 -5z m-265 -10 c-7 -2 -19 -2 -25
0 -7 3 -2 5 12 5 14 0 19 -2 13 -5z m314 1 c-3 -3 -12 -4 -19 -1 -8 3 -5 6 6
6 11 1 17 -2 13 -5z m-360 -10 c-3 -3 -12 -4 -19 -1 -8 3 -5 6 6 6 11 1 17 -2
13 -5z m490 -30 c-3 -3 -12 -4 -19 -1 -8 3 -5 6 6 6 11 1 17 -2 13 -5z m-680
-10 c-3 -3 -12 -4 -19 -1 -8 3 -5 6 6 6 11 1 17 -2 13 -5z m-1344 -24 c-3 -11
-12 -20 -19 -20 -11 0 -10 5 3 20 10 11 18 20 19 20 1 0 0 -9 -3 -20z m1871 0
c218 -56 387 -218 452 -435 25 -82 25 -258 0 -340 -89 -299 -375 -486 -678
-445 -369 51 -608 383 -533 739 73 350 418 568 759 481z m926 -6 c0 -8 -5 -12
-10 -9 -6 4 -8 11 -5 16 9 14 15 11 15 -7z m180 7 c0 -6 -4 -13 -10 -16 -5 -3
-10 1 -10 9 0 9 5 16 10 16 6 0 10 -4 10 -9z m-3030 -5 c0 -2 -8 -10 -17 -17
-16 -13 -17 -12 -4 4 13 16 21 21 21 13z m425 -11 c17 -7 23 -14 15 -14 -8 0
-28 6 -45 14 -16 7 -23 14 -15 14 8 0 29 -6 45 -14z m2726 -97 c-8 -7 -11 -8
-8 -2 4 7 -3 14 -18 16 -15 3 -22 1 -18 -5 3 -6 1 -7 -4 -4 -6 4 -11 23 -11
43 l0 37 36 -36 c30 -31 34 -39 23 -49z m-194 57 c0 -8 -3 -13 -5 -10 -3 3
-12 -1 -21 -7 -10 -8 -9 -4 3 10 23 26 23 26 23 7z m152 -79 c9 -11 9 -16 -1
-22 -7 -4 -10 -4 -6 1 4 4 3 14 -3 22 -6 7 -9 13 -6 13 2 0 10 -6 16 -14z
m232 -166 c73 -109 161 -281 199 -387 l22 -61 -30 -45 c-41 -59 -167 -174
-235 -215 -56 -34 -163 -74 -226 -86 -31 -5 -38 -2 -74 36 -21 24 -52 62 -68
85 l-29 42 11 103 c6 56 9 166 7 244 l-4 141 64 28 c82 36 166 113 216 200
l40 67 19 -24 c10 -12 50 -70 88 -128z m-3257 105 c-5 -13 -9 -13 -23 -3 -9 7
-18 14 -20 15 -2 2 8 3 22 3 20 0 25 -4 21 -15z m326 5 c0 -5 -2 -10 -4 -10
-3 0 -8 5 -11 10 -3 6 -1 10 4 10 6 0 11 -4 11 -10z m2680 0 c0 -5 -2 -10 -4
-10 -3 0 -8 5 -11 10 -3 6 -1 10 4 10 6 0 11 -4 11 -10z m-186 -16 c3 -8 2
-12 -4 -9 -6 3 -10 10 -10 16 0 14 7 11 14 -7z m-2987 -19 c43 -13 105 -40
138 -60 84 -50 189 -157 227 -231 l32 -62 -29 -73 c-75 -195 -164 -350 -261
-458 l-47 -52 -29 60 c-34 71 -129 163 -211 205 -59 29 -184 66 -229 66 -16 0
-28 4 -28 9 0 5 16 55 36 111 44 126 138 317 211 428 63 96 66 96 190 57z
m253 6 c0 -5 -7 -12 -16 -15 -14 -5 -15 -4 -4 9 14 17 20 19 20 6z m2775 -45
c20 -11 24 -16 13 -16 -10 0 -19 -7 -19 -15 -1 -14 -3 -24 -9 -42 -2 -9 -30
86 -30 102 0 6 4 5 8 -2 4 -6 21 -19 37 -27z m105 -6 c0 -5 -4 -10 -10 -10 -5
0 -10 5 -10 10 0 6 5 10 10 10 6 0 10 -4 10 -10z m546 -625 c39 -188 -26 -346
-151 -369 l-30 -6 30 11 c47 18 89 53 110 93 18 32 18 38 5 47 -13 9 -12 10 2
5 11 -3 19 1 22 12 12 45 15 102 7 147 -8 46 -9 47 -11 15 -3 -42 -3 -39 5
-73 5 -17 3 -27 -4 -27 -6 0 -11 13 -11 28 0 15 -6 34 -12 41 -11 11 -10 12 0
6 10 -5 13 -2 11 11 -1 11 1 32 6 47 5 19 3 32 -5 40 -10 9 -11 9 -5 -2 5 -9
4 -12 -3 -7 -12 7 -44 -33 -36 -46 3 -5 2 -7 -3 -6 -13 4 -53 -22 -53 -34 0
-7 5 -6 15 2 8 7 15 8 15 2 0 -16 -26 -32 -36 -23 -5 5 -30 -8 -59 -32 -27
-22 -42 -37 -32 -34 9 4 24 10 33 14 14 5 15 3 5 -15 -9 -17 -16 -20 -34 -13
-30 11 -47 4 -47 -20 0 -13 4 -18 12 -13 6 4 8 3 5 -3 -4 -6 19 -26 51 -45 74
-45 92 -52 92 -32 0 8 -4 13 -8 10 -4 -2 -8 3 -9 12 -1 14 7 17 38 17 45 0 51
-18 19 -53 -26 -27 -25 -27 -85 4 -78 42 -136 86 -131 101 4 9 -8 7 -34 -7
-22 -11 -45 -20 -52 -20 -7 0 10 11 37 24 98 46 284 205 300 257 10 29 13 22
31 -66z m-3981 -7 c100 -26 209 -102 264 -185 40 -61 40 -79 0 -22 -39 54 -54
70 -46 48 5 -14 2 -15 -19 -5 -23 11 -23 11 -3 16 20 5 20 5 -3 26 -13 11 -38
31 -57 44 -27 19 -35 20 -43 9 -8 -11 -9 -10 -4 3 6 22 -75 54 -162 64 l-60 6
-7 -32 c-14 -62 -9 -174 10 -230 10 -30 20 -50 22 -44 2 7 23 4 61 -9 64 -21
101 -19 182 12 75 28 116 62 106 87 -7 18 -8 18 -21 1 -10 -14 -14 -15 -18 -4
-3 7 3 19 14 25 15 10 21 8 33 -9 19 -27 14 -39 -29 -67 -94 -65 -208 -88
-282 -57 -43 18 -43 18 -43 1 0 -8 14 -26 31 -40 17 -14 27 -26 22 -26 -18 0
-62 56 -84 105 -18 40 -23 69 -24 140 0 50 4 107 8 128 l8 39 52 -7 c29 -4 70
-11 92 -17z m-115 -43 c0 -8 -4 -15 -10 -15 -5 0 -10 7 -10 15 0 8 5 15 10 15
6 0 10 -7 10 -15z m4037 -17 c2 -16 0 -16 -13 -4 -17 18 -18 23 -1 23 7 0 14
-9 14 -19z m-3847 -9 c0 -14 -17 -10 -23 5 -4 10 -1 13 9 9 7 -3 14 -9 14 -14z
m3800 -33 c0 -3 -4 -8 -10 -11 -5 -3 -10 -1 -10 4 0 6 5 11 10 11 6 0 10 -2
10 -4z m-3730 -20 c0 -2 -8 -10 -17 -17 -16 -13 -17 -12 -4 4 13 16 21 21 21
13z m3817 -58 c-3 -7 -5 -2 -5 12 0 14 2 19 5 13 2 -7 2 -19 0 -25z m-62 0 c5
4 5 1 1 -6 -6 -10 -11 -10 -22 -1 -8 6 -14 14 -14 16 0 3 6 0 13 -6 8 -6 18
-7 22 -3z m-90 -48 c3 -5 1 -10 -4 -10 -6 0 -11 5 -11 10 0 6 2 10 4 10 3 0 8
-4 11 -10z m-274 -57 c13 -16 12 -17 -3 -4 -10 7 -18 15 -18 17 0 8 8 3 21
-13z m-3221 -7 c0 -2 -8 -10 -17 -17 -16 -13 -17 -12 -4 4 13 16 21 21 21 13z
m3350 -64 c-9 -3 -90 35 -90 43 0 2 22 -6 49 -18 27 -12 45 -23 41 -25z
m-3395 28 c-3 -5 -16 -15 -28 -21 -19 -9 -19 -8 3 10 28 23 34 26 25 11z
m3442 -36 c-3 -3 -12 -4 -19 -1 -8 3 -5 6 6 6 11 1 17 -2 13 -5z m61 -11 c-10
-2 -26 -2 -35 0 -10 3 -2 5 17 5 19 0 27 -2 18 -5z m-3623 -18 c-16 -8 -46
-14 -65 -13 -30 0 -29 1 13 8 27 5 52 11 55 14 3 3 10 6 16 5 6 0 -2 -7 -19
-14z m-128 -11 c-3 -3 -12 -4 -19 -1 -8 3 -5 6 6 6 11 1 17 -2 13 -5z m983
-270 c224 -143 348 -207 502 -259 133 -45 131 -42 79 -139 -54 -102 -174 -157
-341 -159 -269 -2 -432 141 -492 431 -20 95 -21 229 -3 274 6 16 10 15 38 -6
18 -13 115 -77 217 -142z m2079 48 c2 -70 -36 -233 -75 -326 -65 -155 -161
-233 -313 -257 -124 -19 -281 10 -364 66 -35 24 -87 106 -87 138 0 8 24 18 63
26 262 54 532 194 687 358 82 86 87 86 89 -5z"/>
<path d="M4830 7058 c-30 -12 -50 -23 -43 -25 7 -2 22 1 35 8 36 19 87 28 95
16 3 -5 1 -7 -5 -3 -14 8 -24 -8 -16 -27 6 -17 44 -30 44 -16 0 5 -7 9 -16 9
-13 0 -14 3 -5 14 12 14 55 10 46 -4 -9 -14 10 -19 25 -8 12 8 11 9 -5 4 -17
-5 -16 -3 5 14 14 11 18 18 9 14 -10 -3 -20 -1 -24 5 -12 20 41 12 60 -9 13
-15 22 -17 36 -9 14 7 27 5 50 -6 17 -9 33 -14 36 -11 6 6 -28 21 -96 42 -65
21 -166 17 -231 -8z m130 2 c0 -5 -7 -7 -15 -4 -8 4 -15 8 -15 10 0 2 7 4 15
4 8 0 15 -4 15 -10z"/>
<path d="M4719 6991 c-33 -28 -96 -127 -86 -137 2 -3 14 15 25 38 24 51 70
100 86 91 6 -3 8 -3 4 2 -4 4 -3 14 3 22 18 21 6 15 -32 -16z"/>
<path d="M5025 7010 c-4 -6 -12 -10 -18 -9 -27 3 -37 -2 -37 -18 0 -11 3 -14
8 -7 4 6 15 10 25 8 9 -1 22 6 27 17 11 20 6 27 -5 9z"/>
<path d="M5178 7010 c15 -17 16 -40 1 -40 -5 0 -8 4 -4 9 3 5 1 12 -5 16 -5 3
-10 -1 -10 -10 0 -8 -7 -18 -15 -21 -12 -5 -11 -9 7 -24 22 -17 23 -17 35 7
17 34 16 48 -4 64 -15 11 -16 11 -5 -1z"/>
<path d="M5037 6984 c-10 -14 -22 -22 -26 -20 -4 3 -8 -1 -8 -9 0 -17 32 -3
40 17 4 10 8 9 16 -2 10 -13 12 -13 21 0 13 20 13 33 -1 24 -6 -3 -14 -2 -18
4 -3 6 -14 0 -24 -14z"/>
<path d="M4843 6994 c4 -4 -1 -12 -10 -19 -13 -9 -13 -14 -3 -20 8 -5 11 -4 7
2 -4 6 1 14 10 17 9 4 20 2 23 -5 5 -7 9 -4 12 8 4 14 -1 19 -20 21 -14 1 -22
-1 -19 -4z"/>
<path d="M4910 6990 c8 -5 20 -10 25 -10 6 0 3 5 -5 10 -8 5 -19 10 -25 10 -5
0 -3 -5 5 -10z"/>
<path d="M4758 6973 c-18 -21 -30 -53 -20 -53 6 1 43 70 37 70 -1 0 -9 -8 -17
-17z"/>
<path d="M4794 6979 c-3 -6 2 -18 12 -27 17 -16 17 -16 5 0 -7 9 -10 22 -6 28
3 5 4 10 1 10 -3 0 -8 -5 -12 -11z"/>
<path d="M5104 6965 c2 -14 11 -31 21 -39 10 -7 15 -18 12 -23 -7 -11 20 -28
38 -24 6 1 4 -4 -4 -11 -11 -11 -14 -11 -18 0 -4 10 -9 7 -20 -8 l-15 -21 -34
31 c-19 16 -40 30 -47 30 -7 0 2 -9 19 -19 17 -10 40 -31 51 -45 12 -15 23
-23 25 -19 3 5 3 2 1 -6 -2 -7 2 -31 7 -52 22 -80 -30 -172 -115 -205 -57 -21
-107 -14 -162 26 -24 16 -43 25 -43 20 0 -6 -5 -10 -10 -10 -7 0 -7 6 -1 18 6
12 5 25 -5 42 -14 24 -14 23 -11 -19 3 -32 10 -49 26 -59 20 -14 21 -13 14 4
-6 17 -5 17 10 5 9 -7 14 -18 10 -24 -3 -5 -2 -8 3 -5 5 2 19 -6 32 -19 12
-13 17 -23 10 -22 -23 2 -58 -13 -58 -26 0 -7 -7 -18 -15 -25 -18 -15 -20 1
-3 18 9 9 9 12 0 12 -6 0 -15 -7 -19 -15 -7 -12 -10 -11 -21 5 -11 17 -10 19
9 17 14 -1 23 4 24 16 3 15 1 16 -13 5 -9 -7 -13 -8 -10 -3 4 6 3 17 -3 25 -7
12 -9 12 -9 -3 0 -10 -4 -15 -10 -12 -5 3 -10 2 -10 -4 0 -6 -8 -7 -17 -4 -13
5 -15 2 -10 -11 4 -10 7 -24 7 -32 0 -9 4 -13 10 -9 5 3 6 13 3 22 -6 15 -5
16 9 3 9 -8 14 -18 11 -22 -2 -5 0 -8 6 -8 6 0 20 -10 31 -22 19 -21 21 -21
14 -3 -7 17 -6 18 8 7 11 -9 18 -10 23 -2 3 5 -1 10 -10 10 -9 0 -14 4 -11 8
7 12 76 14 76 2 0 -6 -4 -8 -10 -5 -5 3 -10 1 -10 -4 0 -6 5 -11 11 -11 5 0 7
-6 3 -12 -4 -7 2 -5 13 5 16 14 23 15 29 6 4 -7 3 -10 -4 -5 -6 3 -13 2 -16
-3 -3 -5 1 -12 10 -15 8 -3 12 -11 9 -16 -4 -6 -3 -10 2 -9 18 3 47 -3 36 -8
-32 -12 -8 -19 40 -11 59 10 148 50 168 75 8 9 9 14 3 10 -7 -4 -14 0 -18 8
-3 8 -11 15 -18 14 -10 0 -10 -2 0 -6 19 -7 14 -23 -5 -16 -15 6 -16 4 -5 -9
9 -11 10 -18 2 -23 -5 -3 -10 -1 -10 4 0 6 -5 11 -11 11 -5 0 -8 -4 -4 -10 8
-13 -51 -42 -77 -38 -12 2 -23 9 -24 16 -1 7 0 8 3 2 2 -5 12 -10 21 -9 11 0
12 2 5 6 -7 2 -13 11 -13 19 0 9 4 13 9 9 5 -3 12 -1 16 5 3 5 -1 10 -9 10 -8
0 -17 -4 -21 -10 -3 -5 -12 -7 -20 -3 -9 3 -15 -1 -15 -8 0 -12 -2 -12 -9 0
-7 11 -10 9 -16 -8 -7 -22 -19 -21 -21 2 0 7 -2 20 -2 29 -2 12 -7 15 -18 11
-12 -4 -15 -2 -12 8 3 9 16 13 34 11 20 -2 25 0 15 6 -9 6 -10 12 -3 16 6 4
16 -2 21 -13 14 -26 14 -34 -1 -25 -7 4 -9 3 -5 -1 14 -16 33 -13 33 5 0 10
-3 17 -7 14 -4 -2 -9 3 -12 10 -5 12 -1 13 24 4 16 -5 29 -15 29 -21 0 -7 5
-5 10 3 5 8 10 20 10 25 0 6 -4 4 -9 -4 -5 -8 -11 -9 -15 -3 -3 6 -2 13 4 17
5 3 10 11 10 18 0 6 -7 2 -15 -9 -8 -10 -15 -13 -15 -7 0 9 -7 10 -22 4 -13
-5 -32 -5 -43 0 -17 7 -16 8 8 8 36 1 86 23 114 50 12 11 31 21 43 21 11 0 20
5 20 10 0 6 6 5 14 -2 14 -14 11 -38 -6 -38 -6 0 -7 7 -4 16 3 8 2 12 -4 9 -5
-3 -7 -20 -3 -37 4 -22 3 -29 -6 -24 -6 4 -9 12 -6 17 4 5 1 9 -4 9 -22 0 -6
-33 20 -42 9 -4 21 -2 27 4 6 6 15 7 21 3 15 -9 3 -27 -12 -19 -7 4 -8 3 -4
-1 16 -18 33 -12 33 11 0 12 -4 20 -8 18 -7 -5 -12 11 -9 29 1 5 -3 6 -9 2 -5
-3 -10 -12 -10 -20 0 -8 -5 -17 -11 -20 -8 -6 14 62 25 72 1 2 22 4 44 6 23 1
42 5 42 8 0 12 -35 20 -38 10 -6 -18 -30 -12 -28 7 3 19 22 23 47 10 15 -6 16
-1 14 37 -1 25 1 43 5 40 4 -2 5 7 2 20 -2 14 -8 23 -12 20 -4 -3 -13 2 -20
10 -11 13 -10 14 4 9 10 -4 16 -1 16 7 0 11 3 11 10 -1 7 -11 9 -6 7 19 -2 25
-8 35 -21 37 -10 1 -24 8 -30 14 -8 9 -5 11 14 5 14 -4 30 -8 35 -9 6 0 13 -5
17 -11 5 -6 8 -6 8 2 0 6 -12 26 -27 44 -16 18 -22 29 -15 25 11 -7 12 -4 3
12 -6 12 -17 24 -24 28 -8 5 -7 2 2 -9 11 -15 11 -17 -2 -17 -8 0 -18 -6 -20
-12 -4 -10 -6 -10 -6 0 -1 17 -21 15 -21 -3 0 -8 -5 -15 -11 -15 -5 0 -7 5 -4
10 3 6 1 11 -4 11 -6 1 -17 2 -23 3 -7 1 -12 7 -10 14 1 7 -7 12 -18 12 -13 0
-18 5 -14 15 4 8 12 15 20 15 8 0 14 5 14 10 0 6 -11 10 -24 10 -20 0 -24 -4
-22 -25z m93 -117 c-3 -7 -5 -2 -5 12 0 14 2 19 5 13 2 -7 2 -19 0 -25z m-40
-4 c-3 -3 -12 -4 -19 -1 -8 3 -5 6 6 6 11 1 17 -2 13 -5z m37 -59 c-4 -8 -8
-15 -11 -15 -3 0 -2 7 1 16 4 11 2 15 -7 11 -8 -3 -14 1 -14 8 0 10 5 11 18 4
11 -5 16 -16 13 -24z m40 -21 c3 -8 2 -12 -4 -9 -6 3 -10 10 -10 16 0 14 7 11
14 -7z m-44 -29 c1 6 5 1 9 -9 5 -13 2 -26 -7 -37 -16 -19 -32 -16 -32 4 0 7
4 6 10 -3 6 -9 10 -10 10 -3 0 6 -4 15 -10 18 -5 3 -10 18 -10 33 0 25 1 25
15 6 8 -10 15 -14 15 -9z m70 -55 c0 -5 -8 -10 -17 -10 -15 0 -16 2 -3 10 19
12 20 12 20 0z m-79 -57 c-12 -20 -14 -14 -5 12 4 9 9 14 11 11 3 -2 0 -13 -6
-23z m-301 -137 c0 -2 -7 -7 -16 -10 -8 -3 -12 -2 -9 4 6 10 25 14 25 6z m134
-91 c3 -8 3 -15 0 -15 -3 0 -12 7 -20 15 -13 13 -13 15 -1 15 8 0 17 -7 21
-15z"/>
<path d="M4893 6965 c0 -8 4 -12 9 -9 5 3 6 10 3 15 -9 13 -12 11 -12 -6z"/>
<path d="M4953 6940 c-1 -16 1 -17 12 -7 7 6 11 15 8 20 -8 13 -19 7 -20 -13z"/>
<path d="M5061 6947 c2 -1 13 -9 24 -17 19 -14 19 -14 6 3 -7 9 -18 17 -24 17
-6 0 -8 -1 -6 -3z"/>
<path d="M4886 6918 c3 -5 10 -6 15 -3 13 9 11 12 -6 12 -8 0 -12 -4 -9 -9z"/>
<path d="M4908 6906 c-16 -5 -28 -14 -28 -19 0 -4 5 -5 11 -2 6 4 22 10 37 14
14 4 22 10 17 12 -6 3 -22 1 -37 -5z"/>
<path d="M4740 6899 c0 -5 5 -7 10 -4 6 3 10 8 10 11 0 2 -4 4 -10 4 -5 0 -10
-5 -10 -11z"/>
<path d="M4998 6903 c7 -3 16 -2 19 1 4 3 -2 6 -13 5 -11 0 -14 -3 -6 -6z"/>
<path d="M4905 6876 c-98 -44 -130 -165 -66 -254 44 -62 149 -82 211 -39 58
39 75 71 75 141 0 54 -4 68 -29 100 -46 61 -123 82 -191 52z"/>
<path d="M4837 6855 c-15 -14 -27 -29 -27 -32 0 -4 14 6 30 22 28 26 34 35 27
35 -1 0 -15 -11 -30 -25z"/>
<path d="M4723 6825 c0 -8 4 -15 8 -15 5 0 6 -7 3 -15 -4 -8 -2 -15 4 -15 18
0 22 29 6 45 -19 19 -21 19 -21 0z"/>
<path d="M4763 6825 c0 -8 4 -12 9 -9 4 3 8 9 8 15 0 5 -4 9 -8 9 -5 0 -9 -7
-9 -15z"/>
<path d="M4776 6806 c-14 -14 -15 -18 -4 -14 12 5 14 0 8 -31 -4 -21 -10 -44
-15 -51 -5 -8 -4 -11 3 -6 6 3 13 -2 15 -11 3 -10 5 1 6 24 0 23 5 52 10 66
13 34 0 47 -23 23z"/>
<path d="M5313 6755 c1 -38 -2 -90 -5 -115 -6 -35 -4 -32 8 15 12 45 13 73 6
115 l-9 55 0 -70z"/>
<path d="M4611 6794 c0 -11 3 -14 6 -6 3 7 2 16 -1 19 -3 4 -6 -2 -5 -13z"/>
<path d="M4740 6770 c-14 -4 -20 -8 -13 -9 6 -1 18 -3 26 -6 8 -4 14 0 14 10
0 8 -1 15 -1 14 -1 -1 -12 -5 -26 -9z"/>
<path d="M4720 6742 c0 -4 9 -8 20 -9 11 -1 18 2 15 8 -7 11 -35 12 -35 1z"/>
<path d="M4607 6699 c3 -24 7 -46 9 -48 9 -10 3 65 -5 78 -6 10 -8 -1 -4 -30z"/>
<path d="M4720 6710 c0 -5 5 -10 11 -10 5 0 8 -4 5 -8 -2 -4 4 -8 14 -9 18 -2
18 -1 -1 18 -21 21 -29 24 -29 9z"/>
<path d="M4723 6649 c-1 -10 2 -21 8 -24 5 -3 6 0 4 7 -4 9 2 14 15 14 23 0
25 -7 8 -25 -11 -10 -9 -11 5 -5 18 7 20 35 2 36 -5 0 -17 4 -25 8 -12 6 -16
3 -17 -11z"/>
<path d="M4690 6641 c0 -6 4 -13 10 -16 6 -3 7 1 4 9 -7 18 -14 21 -14 7z"/>
<path d="M4620 6628 c0 -9 4 -19 9 -22 4 -3 11 -18 14 -34 3 -15 14 -39 25
-52 17 -20 19 -21 25 -6 4 10 3 15 -3 11 -5 -3 -14 4 -20 15 -9 16 -8 25 1 38
11 14 11 15 -1 5 -11 -11 -17 -6 -32 25 -9 20 -17 29 -18 20z"/>
<path d="M4767 6593 c-4 -3 -7 -11 -7 -17 0 -6 5 -5 12 2 6 6 9 14 7 17 -3 3
-9 2 -12 -2z"/>
<path d="M4731 6566 c-9 -11 -6 -15 14 -18 28 -6 32 3 11 21 -10 8 -16 8 -25
-3z"/>
<path d="M5270 6560 c0 -13 -4 -19 -12 -14 -7 4 -8 3 -4 -4 4 -7 -5 -29 -20
-49 l-26 -38 26 30 c38 42 58 82 46 90 -6 3 -10 -3 -10 -15z"/>
<path d="M5076 6522 c11 -46 20 -54 21 -18 1 21 -4 37 -13 40 -11 4 -13 -1 -8
-22z"/>
<path d="M4834 6528 c1 -7 10 -14 19 -16 12 -3 15 1 11 13 -5 12 -9 13 -14 5
-6 -9 -9 -9 -13 -1 -3 7 -5 7 -3 -1z"/>
<path d="M4720 6460 c34 -30 101 -70 117 -70 4 1 -9 10 -30 21 -50 26 -77 50
-78 69 0 11 -2 11 -6 2 -4 -10 -9 -10 -21 -1 -10 6 -1 -3 18 -21z"/>
<path d="M4880 6416 c8 -23 7 -26 -12 -26 -34 0 -17 -7 40 -18 54 -10 74 2 22
13 -18 4 -27 11 -24 17 4 7 2 8 -4 4 -7 -4 -12 -1 -12 8 0 8 -4 18 -10 21 -7
4 -7 -3 0 -19z"/>
<path d="M4763 5439 c-406 -22 -699 -81 -850 -170 -121 -73 -230 -199 -287
-336 -85 -203 -124 -521 -105 -853 22 -390 91 -592 259 -761 98 -98 170 -140
325 -188 265 -83 571 -115 1090 -115 410 0 597 13 870 59 522 88 737 292 827
784 18 95 22 156 22 336 1 242 -10 337 -55 514 -53 209 -124 345 -234 450
-147 139 -328 206 -685 251 -295 37 -802 50 -1177 29z m-229 -809 c69 -33 123
-92 165 -179 60 -127 56 -283 -11 -418 -139 -284 -491 -235 -583 82 -64 217
38 460 222 530 55 21 147 15 207 -15z m1677 8 c127 -43 214 -177 226 -348 9
-122 -32 -247 -108 -334 -107 -122 -275 -130 -387 -18 -195 195 -148 580 83
688 56 26 131 31 186 12z m-1174 -807 c26 -30 65 -60 100 -78 50 -24 69 -28
143 -27 110 0 177 29 241 103 51 59 91 69 110 27 34 -74 -76 -182 -226 -221
-110 -28 -250 -13 -348 37 -59 30 -137 111 -137 143 0 80 55 88 117 16z"/>
<path d="M3047 4400 c-3 -11 -4 -20 -3 -20 1 0 9 9 19 20 13 15 14 20 3 20 -7
0 -16 -9 -19 -20z"/>
<path d="M3095 4390 c6 -10 4 -12 -9 -7 -10 4 -15 3 -11 -3 8 -13 35 -13 35
-1 0 6 -5 13 -12 17 -7 5 -8 3 -3 -6z"/>
<path d="M3080 4331 c0 -6 4 -13 10 -16 6 -3 7 1 4 9 -7 18 -14 21 -14 7z"/>
<path d="M7226 4733 c13 -60 24 -120 24 -135 0 -16 4 -28 9 -28 4 0 1 43 -8
95 -13 69 -14 92 -5 84 8 -7 13 -6 16 0 1 6 15 12 31 13 15 1 27 5 27 8 0 19
-79 70 -109 70 -4 0 3 -48 15 -107z m14 83 c0 -3 -4 -8 -10 -11 -5 -3 -10 -1
-10 4 0 6 5 11 10 11 6 0 10 -2 10 -4z"/>
<path d="M7280 4710 c0 -13 11 -13 30 0 12 8 11 10 -7 10 -13 0 -23 -4 -23
-10z"/>
<path d="M7262 4530 c0 -19 2 -27 5 -17 2 9 2 25 0 35 -3 9 -5 1 -5 -18z"/>
<path d="M7381 4432 c-1 -7 -5 -11 -10 -7 -5 3 -13 0 -17 -6 -5 -8 -3 -9 6 -4
10 6 12 4 6 -11 -7 -18 -6 -18 10 -2 9 9 14 22 11 30 -4 10 -6 10 -6 0z"/>
<path d="M7305 4410 c3 -5 8 -10 11 -10 2 0 4 5 4 10 0 6 -5 10 -11 10 -5 0
-7 -4 -4 -10z"/>
<path d="M7309 4348 c-7 -23 -5 -37 4 -35 7 1 11 -4 9 -12 -3 -12 -1 -12 14 0
16 13 16 14 1 17 -10 2 -17 8 -17 13 0 6 4 8 9 4 5 -3 12 -1 16 5 3 5 -3 10
-14 10 -12 0 -21 -1 -22 -2z"/>
<path d="M7412 4364 c9 -3 19 -15 22 -27 4 -18 4 -18 3 3 -1 17 -8 25 -22 27
-14 1 -15 0 -3 -3z"/>
<path d="M5140 2294 c-103 -22 -186 -68 -266 -148 -109 -109 -154 -219 -154
-377 0 -197 104 -372 277 -461 88 -46 158 -62 263 -61 347 4 594 317 515 652
-47 196 -211 354 -413 396 -82 18 -137 18 -222 -1z m272 -54 c32 -10 80 -32
107 -49 55 -36 157 -139 146 -149 -3 -4 -11 2 -17 13 -14 24 -80 86 -129 121
-131 91 -351 98 -503 16 -58 -31 -150 -117 -141 -132 3 -5 1 -18 -4 -28 -7
-13 -7 -22 1 -30 9 -9 9 -12 1 -12 -16 0 -22 22 -11 43 5 10 7 21 4 24 -8 9
-64 -111 -80 -174 -47 -180 26 -382 178 -494 42 -31 77 -41 38 -11 -21 17 -22
18 -3 18 11 0 17 -4 15 -8 -3 -4 -1 -8 5 -8 5 0 12 6 15 13 3 6 4 3 3 -8 -1
-11 -6 -23 -11 -27 -12 -8 47 -33 117 -48 104 -24 311 7 351 51 8 9 6 10 -9 5
-11 -4 -16 -3 -11 1 4 4 18 8 29 8 12 0 21 5 20 12 -2 7 3 10 10 7 36 -14 143
124 176 226 20 63 30 181 20 235 -14 76 -49 163 -68 168 -14 4 -14 5 1 6 25 2
65 -84 80 -169 23 -133 -19 -296 -104 -401 -46 -57 -162 -132 -239 -154 -82
-23 -214 -24 -289 -2 -212 65 -351 251 -350 472 1 135 46 246 141 343 129 134
324 180 511 122z m8 -30 c11 -8 6 -10 -22 -8 -20 1 -34 6 -32 10 7 11 36 10
54 -2z m198 -145 c-3 -3 -9 2 -12 12 -6 14 -5 15 5 6 7 -7 10 -15 7 -18z
m-495 -32 c-13 -2 -35 -2 -50 0 -16 2 -5 4 22 4 28 0 40 -2 28 -4z m64 -9 c-3
-3 -12 -4 -19 -1 -8 3 -5 6 6 6 11 1 17 -2 13 -5z m161 -1 c-10 -2 -28 -2 -40
0 -13 2 -5 4 17 4 22 1 32 -1 23 -4z m289 1 c-3 -3 -12 -4 -19 -1 -8 3 -5 6 6
6 11 1 17 -2 13 -5z m-442 -24 c12 -4 26 -14 32 -22 15 -17 5 -101 -11 -94 -6
3 -34 12 -62 21 -62 19 -116 6 -148 -38 -31 -41 -34 -150 -6 -195 39 -63 121
-76 197 -32 37 22 39 20 42 -41 2 -43 0 -47 -32 -62 -53 -26 -135 -31 -185
-13 -64 23 -95 49 -126 105 -82 151 -14 333 144 382 27 8 121 1 155 -11z m30
10 c3 -6 -1 -7 -9 -4 -18 7 -21 14 -7 14 6 0 13 -4 16 -10z m197 -175 l46
-170 12 45 c7 25 28 101 48 170 l37 125 53 3 c37 2 52 -1 52 -10 0 -7 -35
-118 -77 -245 l-78 -233 -52 0 c-29 0 -53 2 -53 5 0 2 -34 110 -75 238 -41
129 -75 237 -75 241 0 4 26 6 58 4 l57 -3 47 -170z m-462 161 c0 -2 -8 -10
-17 -17 -16 -13 -17 -12 -4 4 13 16 21 21 21 13z m297 -58 c-3 -8 -6 -5 -6 6
-1 11 2 17 5 13 3 -3 4 -12 1 -19z m430 0 c-3 -8 -6 -5 -6 6 -1 11 2 17 5 13
3 -3 4 -12 1 -19z m-574 -45 c-7 -2 -21 -2 -30 0 -10 3 -4 5 12 5 17 0 24 -2
18 -5z m-266 -110 c-3 -10 -5 -2 -5 17 0 19 2 27 5 18 2 -10 2 -26 0 -35z
m783 10 c-11 -17 -11 -17 -6 0 3 10 6 24 7 30 0 9 2 9 5 0 3 -7 0 -20 -6 -30z
m-173 -15 c-3 -8 -6 -5 -6 6 -1 11 2 17 5 13 3 -3 4 -12 1 -19z m-454 -43 c4
-32 3 -43 -3 -30 -8 19 -14 93 -6 84 2 -2 6 -26 9 -54z m468 9 c-5 -16 -10
-21 -10 -12 -1 18 10 51 15 45 2 -1 -1 -16 -5 -33z m143 -8 c-3 -15 -8 -25
-11 -23 -2 3 -1 17 3 31 3 15 8 25 11 23 2 -3 1 -17 -3 -31z m-767 -13 c-3
-10 -5 -4 -5 12 0 17 2 24 5 18 2 -7 2 -21 0 -30z m860 -55 c-3 -8 -6 -5 -6 6
-1 11 2 17 5 13 3 -3 4 -12 1 -19z m-653 -27 c-2 -3 -12 3 -22 13 -16 17 -16
18 5 5 12 -7 20 -15 17 -18z m151 19 c-3 -5 -12 -10 -18 -10 -7 0 -6 4 3 10
19 12 23 12 15 0z m-317 -42 c12 -21 18 -38 14 -38 -8 0 -42 63 -42 77 0 8 2
5 28 -39z m369 10 c-3 -8 -6 -5 -6 6 -1 11 2 17 5 13 3 -3 4 -12 1 -19z m131
-83 c0 -5 -6 4 -13 20 -8 17 -14 37 -14 45 0 8 7 -1 14 -20 7 -19 13 -39 13
-45z m-121 18 c-3 -10 -5 -4 -5 12 0 17 2 24 5 18 2 -7 2 -21 0 -30z m283 -10
c-11 -17 -11 -17 -6 0 3 10 6 24 7 30 0 9 2 9 5 0 3 -7 0 -20 -6 -30z m65 -2
c3 -5 2 -12 -3 -15 -5 -3 -9 1 -9 9 0 17 3 19 12 6z m-390 -31 c-3 -5 -12 -10
-18 -10 -7 0 -6 4 3 10 19 12 23 12 15 0z m-173 -20 l43 -9 -44 3 c-24 3 -49
10 -55 17 -8 9 -8 10 1 5 7 -4 32 -11 55 -16z m91 -7 c-7 -2 -19 -2 -25 0 -7
3 -2 5 12 5 14 0 19 -2 13 -5z m350 0 c-13 -2 -35 -2 -50 0 -16 2 -5 4 22 4
28 0 40 -2 28 -4z m-25 -104 c-11 -6 -15 -16 -11 -27 3 -9 3 -14 -1 -11 -4 4
-8 15 -10 26 -3 14 2 19 17 20 19 2 20 1 5 -8z m-171 -75 c-3 -3 -12 -4 -19
-1 -8 3 -5 6 6 6 11 1 17 -2 13 -5z"/>
<path d="M6390 2095 c0 -8 2 -15 4 -15 2 0 6 7 10 15 3 8 1 15 -4 15 -6 0 -10
-7 -10 -15z"/>
</g>
</svg>
